<svg xmlns="http://www.w3.org/2000/svg" viewBox="0 0 128 128" role="img" aria-label="Facet flame">
  <!-- 128 grid. Shard flame on faceted logs. Light from upper-left. -->
  <polygon fill="#b67450" points="29,83 77,74 67,99"/>
  <polygon fill="#ff9e64" points="77,74 96,86 67,99"/>
  <polygon fill="#8d5d45" points="48,80 102,83 89,102"/>
  <polygon fill="#b67450" points="48,80 89,102 39,99"/>
  <polygon fill="#fcb588" points="36,80 51,74 55,86"/>

  <polygon fill="#fcb588" points="64,4 39,58 89,58"/>
  <polygon fill="#ff9e64" points="39,58 89,58 64,77"/>
  <polygon fill="#b67450" points="39,58 45,96 64,77"/>
  <polygon fill="#bb9af7" points="89,58 83,96 64,77"/>
  <polygon fill="#b67450" points="45,96 83,96 64,77"/>
  <polygon fill="#bb9af7" points="64,35 53,67 75,67"/>
  <polygon fill="#f4efe6" points="64,16 58,35 70,35"/>
</svg>
